<?xml version="1.0" encoding="UTF-8" standalone="no"?>
<svg
   viewBox="0 0 64 64"
   version="1.1"
   id="svg1"
   sodipodi:docname="favicon.svg"
   inkscape:version="1.4.2 (ebf0e940d0, 2025-05-08)"
   xmlns:inkscape="http://www.inkscape.org/namespaces/inkscape"
   xmlns:sodipodi="http://sodipodi.sourceforge.net/DTD/sodipodi-0.dtd"
   xmlns="http://www.w3.org/2000/svg"
   xmlns:svg="http://www.w3.org/2000/svg">
  <defs
     id="defs1" />
  <sodipodi:namedview
     id="namedview1"
     pagecolor="#ffffff"
     bordercolor="#111111"
     borderopacity="1"
     inkscape:showpageshadow="0"
     inkscape:pageopacity="0"
     inkscape:pagecheckerboard="1"
     inkscape:deskcolor="#d1d1d1"
     inkscape:zoom="12.125"
     inkscape:cx="31.958763"
     inkscape:cy="32"
     inkscape:window-width="1920"
     inkscape:window-height="1004"
     inkscape:window-x="0"
     inkscape:window-y="0"
     inkscape:window-maximized="1"
     inkscape:current-layer="svg1" />
  <rect
     width="64"
     height="64"
     rx="12"
     fill="#0ABAB5"
     id="rect1" />
  <path
     style="font-size:48px;font-family:Kavoon;-inkscape-font-specification:'Kavoon, Normal';text-anchor:middle;fill:#ffffff"
     d="m 20.375,30.65625 q 0,-7.101563 0.210937,-10.898438 H 20.5625 L 16.976562,19.265625 Q 16.671875,18.398437 16.507812,17.367187 16.34375,16.3125 16.34375,15.328125 q 0,-0.75 0.117187,-1.640625 2.859375,-0.960937 7.476563,-1.476562 4.617187,-0.539063 8.8125,-0.539063 3.585937,0 6.164062,0.5625 2.578125,0.539063 4.3125,2.484375 1.757813,1.921875 1.757813,5.742187 0,1.5 -0.820313,3.398438 -0.820312,1.875 -2.15625,3.539062 -1.3125,1.640625 -2.742187,2.53125 1.78125,0.304688 3.304687,1.242188 1.546875,0.914062 2.507813,2.507812 0.960937,1.570313 0.960937,3.726563 0,2.882812 -1.101562,4.96875 -1.101563,2.085937 -3.140625,3.445312 -3.984375,2.648438 -11.25,2.648438 -2.859375,0 -5.085938,-0.117188 -2.203125,-0.09375 -4.078125,-0.375 Q 20.375,42.539062 20.375,30.65625 Z m 13.335937,-1.476563 q 0.609375,-1.710937 1.03125,-4.335937 0.445313,-2.648438 0.539063,-4.3125 -0.117188,-0.210938 -1.195313,-0.351563 -1.078125,-0.164062 -2.789062,-0.164062 -0.539063,0 -1.804688,0.07031 -0.1875,5.273438 -0.5625,9.46875 l 2.367188,-0.1875 z m -1.171875,13.148438 q 1.96875,0 2.8125,-0.164063 0.585938,-0.351562 1.03125,-1.265625 0.46875,-0.914062 0.703125,-1.992187 0.234375,-1.101563 0.234375,-1.96875 -0.421875,-1.21875 -4.195312,-1.21875 -1.59375,0 -3.65625,0.210937 Q 28.90625,36 28.625,36 l -0.07031,3.421875 q -0.02344,0.515625 -0.04687,1.195312 -0.02344,0.679688 -0.02344,1.523438 1.546875,0.1875 3.375,0.1875 z"
     id="text1"
     aria-label="B" />
</svg>
